<svg width="207" height="146" viewBox="0 0 207 146" fill="none" xmlns="http://www.w3.org/2000/svg">
<path d="M112.03 124.8C100.164 138.8 84.4971 145.8 65.0305 145.8C45.5638 145.8 29.8971 138.867 18.0305 125C6.29714 111 0.430469 93.6667 0.430469 73C0.430469 52.6 6.43047 35.4 18.4305 21.4C30.4305 7.26666 46.0971 0.199991 65.4305 0.199991C84.8971 0.199991 100.497 7.19999 112.23 21.2C124.097 35.2 130.03 52.4667 130.03 73C130.03 93.4 124.03 110.667 112.03 124.8ZM46.6305 100.8C51.4305 107.867 57.6971 111.4 65.4305 111.4C73.1638 111.4 79.3638 107.867 84.0305 100.8C88.6971 93.6 91.0305 84.3333 91.0305 73C91.0305 61.8 88.5638 52.6 83.6305 45.4C78.8305 38.2 72.6305 34.6 65.0305 34.6C57.2971 34.6 51.0971 38.1333 46.4305 45.2C41.7638 52.2667 39.4305 61.5333 39.4305 73C39.4305 84.3333 41.8305 93.6 46.6305 100.8ZM167.995 143V38.2L144.395 43.6L136.995 13.6L177.995 1.99999H206.195V143H167.995Z" fill="white" fill-opacity="0.06"/>
</svg>
